<mxfile host="app.diagrams.net" modified="2022-01-07T19:40:36.036Z" agent="5.0 (Macintosh; Intel Mac OS X 10_15_6) AppleWebKit/605.1.15 (KHTML, like Gecko) Version/14.1 Safari/605.1.15" etag="xRumZbBiCBgsikrx8dIc" version="16.2.3" type="github">
  <diagram id="3EuarJ47rFNOUN-i4bVP" name="Page-1">
    <mxGraphModel dx="1173" dy="2258" grid="1" gridSize="10" guides="1" tooltips="1" connect="1" arrows="1" fold="1" page="1" pageScale="1" pageWidth="827" pageHeight="1169" math="0" shadow="0">
      <root>
        <mxCell id="0" />
        <mxCell id="1" parent="0" />
        <mxCell id="YpUXDpQcDBUKk7m2N4F_-1" value="" style="image;html=1;image=img/lib/clip_art/networking/Router_128x128.png" vertex="1" parent="1">
          <mxGeometry x="210" y="415" width="70" height="70" as="geometry" />
        </mxCell>
        <mxCell id="YpUXDpQcDBUKk7m2N4F_-2" value="" style="image;html=1;image=img/lib/clip_art/networking/Router_128x128.png" vertex="1" parent="1">
          <mxGeometry x="450" y="260" width="80" height="80" as="geometry" />
        </mxCell>
        <mxCell id="YpUXDpQcDBUKk7m2N4F_-3" value="" style="image;html=1;image=img/lib/clip_art/networking/Router_128x128.png" vertex="1" parent="1">
          <mxGeometry x="450" y="550" width="80" height="80" as="geometry" />
        </mxCell>
        <mxCell id="YpUXDpQcDBUKk7m2N4F_-4" value="" style="image;html=1;image=img/lib/clip_art/networking/Router_Icon_128x128.png" vertex="1" parent="1">
          <mxGeometry y="410" width="80" height="80" as="geometry" />
        </mxCell>
        <mxCell id="YpUXDpQcDBUKk7m2N4F_-5" value="" style="endArrow=none;html=1;rounded=0;exitX=1;exitY=0.5;exitDx=0;exitDy=0;strokeWidth=5;" edge="1" parent="1" source="YpUXDpQcDBUKk7m2N4F_-4">
          <mxGeometry width="50" height="50" relative="1" as="geometry">
            <mxPoint x="260" y="560" as="sourcePoint" />
            <mxPoint x="200" y="450" as="targetPoint" />
          </mxGeometry>
        </mxCell>
        <mxCell id="YpUXDpQcDBUKk7m2N4F_-8" value="" style="endArrow=none;html=1;rounded=0;strokeWidth=5;entryX=0;entryY=0.5;entryDx=0;entryDy=0;exitX=0.5;exitY=0;exitDx=0;exitDy=0;" edge="1" parent="1" source="YpUXDpQcDBUKk7m2N4F_-1" target="YpUXDpQcDBUKk7m2N4F_-2">
          <mxGeometry width="50" height="50" relative="1" as="geometry">
            <mxPoint x="260" y="560" as="sourcePoint" />
            <mxPoint x="310" y="510" as="targetPoint" />
            <Array as="points">
              <mxPoint x="245" y="300" />
            </Array>
          </mxGeometry>
        </mxCell>
        <mxCell id="YpUXDpQcDBUKk7m2N4F_-9" value="" style="endArrow=none;html=1;rounded=0;strokeWidth=5;entryX=0.5;entryY=1;entryDx=0;entryDy=0;exitX=0;exitY=0.5;exitDx=0;exitDy=0;" edge="1" parent="1" source="YpUXDpQcDBUKk7m2N4F_-3" target="YpUXDpQcDBUKk7m2N4F_-1">
          <mxGeometry width="50" height="50" relative="1" as="geometry">
            <mxPoint x="260" y="560" as="sourcePoint" />
            <mxPoint x="310" y="510" as="targetPoint" />
            <Array as="points">
              <mxPoint x="245" y="590" />
            </Array>
          </mxGeometry>
        </mxCell>
        <mxCell id="YpUXDpQcDBUKk7m2N4F_-10" value="Internet" style="text;html=1;strokeColor=none;fillColor=none;align=center;verticalAlign=middle;whiteSpace=wrap;rounded=0;" vertex="1" parent="1">
          <mxGeometry y="370" width="60" height="30" as="geometry" />
        </mxCell>
        <mxCell id="YpUXDpQcDBUKk7m2N4F_-13" value="Vodafone&lt;br&gt;192.168.1.1" style="text;html=1;strokeColor=none;fillColor=none;align=center;verticalAlign=middle;whiteSpace=wrap;rounded=0;" vertex="1" parent="1">
          <mxGeometry x="290" y="435" width="60" height="30" as="geometry" />
        </mxCell>
        <mxCell id="YpUXDpQcDBUKk7m2N4F_-14" value="Fritz Box&lt;br&gt;192.168.1.4/24" style="text;html=1;strokeColor=none;fillColor=none;align=center;verticalAlign=middle;whiteSpace=wrap;rounded=0;" vertex="1" parent="1">
          <mxGeometry x="420" y="620" width="40" height="30" as="geometry" />
        </mxCell>
        <mxCell id="YpUXDpQcDBUKk7m2N4F_-15" value="pfSense.lucas.network&lt;br&gt;192.168.1.2/30" style="text;html=1;strokeColor=none;fillColor=none;align=center;verticalAlign=middle;whiteSpace=wrap;rounded=0;" vertex="1" parent="1">
          <mxGeometry x="460" y="320" width="60" height="30" as="geometry" />
        </mxCell>
        <mxCell id="YpUXDpQcDBUKk7m2N4F_-23" value="" style="rounded=0;whiteSpace=wrap;html=1;fontSize=20;" vertex="1" parent="1">
          <mxGeometry x="730" y="230" width="270" height="470" as="geometry" />
        </mxCell>
        <mxCell id="YpUXDpQcDBUKk7m2N4F_-24" value="" style="points=[];aspect=fixed;html=1;align=center;shadow=0;dashed=0;image;image=img/lib/allied_telesis/switch/Switch_24_port_L2.svg;fontSize=20;" vertex="1" parent="1">
          <mxGeometry x="730" y="230" width="43.77" height="30" as="geometry" />
        </mxCell>
        <mxCell id="YpUXDpQcDBUKk7m2N4F_-27" value="" style="rounded=0;whiteSpace=wrap;html=1;fontSize=20;" vertex="1" parent="1">
          <mxGeometry x="1490" y="-260" width="640" height="480" as="geometry" />
        </mxCell>
        <mxCell id="YpUXDpQcDBUKk7m2N4F_-17" value="Proxmox" style="text;html=1;strokeColor=none;fillColor=none;align=center;verticalAlign=middle;whiteSpace=wrap;rounded=0;fontSize=20;" vertex="1" parent="1">
          <mxGeometry x="1500" y="-290" width="100" height="100" as="geometry" />
        </mxCell>
      </root>
    </mxGraphModel>
  </diagram>
</mxfile>
